<?xml version="1.0" encoding="UTF-8" standalone="no"?>
<!-- Created with Inkscape (http://www.inkscape.org/) -->

<svg
   width="164.05719mm"
   height="81.537285mm"
   viewBox="0 0 164.05719 81.537285"
   version="1.1"
   id="svg1"
   inkscape:version="1.4.2 (ebf0e940, 2025-05-08)"
   sodipodi:docname="jays_auto.svg"
   xmlns:inkscape="http://www.inkscape.org/namespaces/inkscape"
   xmlns:sodipodi="http://sodipodi.sourceforge.net/DTD/sodipodi-0.dtd"
   xmlns="http://www.w3.org/2000/svg"
   xmlns:svg="http://www.w3.org/2000/svg">
  <sodipodi:namedview
     id="namedview1"
     pagecolor="#ffffff"
     bordercolor="#000000"
     borderopacity="0.25"
     inkscape:showpageshadow="2"
     inkscape:pageopacity="0.0"
     inkscape:pagecheckerboard="0"
     inkscape:deskcolor="#d1d1d1"
     inkscape:document-units="mm"
     inkscape:zoom="1.0063563"
     inkscape:cx="310.02935"
     inkscape:cy="93.90312"
     inkscape:window-width="1680"
     inkscape:window-height="860"
     inkscape:window-x="0"
     inkscape:window-y="39"
     inkscape:window-maximized="0"
     inkscape:current-layer="layer1" />
  <defs
     id="defs1">
    <clipPath
       clipPathUnits="userSpaceOnUse"
       id="clipPath15">
      <rect
         style="opacity:0.503433;fill:#f90000;fill-opacity:1;stroke:#000000;stroke-width:0.264999;stroke-dasharray:none;stroke-opacity:1"
         id="rect16"
         width="183.55345"
         height="64.46051"
         x="16.765512"
         y="27.171694"
         ry="0.57812113" />
    </clipPath>
    <clipPath
       clipPathUnits="userSpaceOnUse"
       id="clipPath1">
      <rect
         style="opacity:0.503433;fill:#f90000;fill-opacity:1;stroke:#000000;stroke-width:0.264999;stroke-dasharray:none;stroke-opacity:1"
         id="rect1"
         width="183.55345"
         height="64.46051"
         x="16.765512"
         y="27.171694"
         ry="0.57812113" />
    </clipPath>
  </defs>
  <g
     inkscape:label="Layer 1"
     inkscape:groupmode="layer"
     id="layer1"
     transform="translate(-33.866667,-83.343748)">
    <text
       xml:space="preserve"
       style="font-style:normal;font-variant:normal;font-weight:bold;font-stretch:normal;font-size:22.5778px;font-family:Montserrat;-inkscape-font-specification:'Montserrat Bold';text-align:center;letter-spacing:2.64583px;writing-mode:lr-tb;direction:ltr;text-anchor:middle;fill:#000000;fill-opacity:1;stroke:#000000;stroke-width:0.265;stroke-dasharray:none;stroke-opacity:1"
       x="116.67533"
       y="153.50488"
       id="text14"><tspan
         sodipodi:role="line"
         id="tspan13"
         style="font-size:22.5778px;letter-spacing:2.64583px;fill:#000000;fill-opacity:1;stroke:#000000;stroke-width:0.265;stroke-dasharray:none;stroke-opacity:1"
         x="117.99825"
         y="153.50488">JAYS AUTO</tspan></text>
    <text
       xml:space="preserve"
       style="font-style:normal;font-variant:normal;font-weight:600;font-stretch:normal;font-size:11.2889px;font-family:Montserrat;-inkscape-font-specification:'Montserrat Semi-Bold';text-align:center;letter-spacing:3.96875px;writing-mode:lr-tb;direction:ltr;text-anchor:middle;fill:#000000;fill-opacity:1;stroke:#000000;stroke-width:0.264999;stroke-dasharray:none;stroke-opacity:1"
       x="112.63625"
       y="164.63567"
       id="text18"><tspan
         sodipodi:role="line"
         id="tspan18"
         style="font-size:11.2889px;letter-spacing:3.96875px;fill:#000000;fill-opacity:1;stroke:#000000;stroke-width:0.265;stroke-opacity:1"
         x="114.62063"
         y="164.63567">DETAILING</tspan></text>
    <g
       id="g1"
       transform="translate(9.1525737,48.722367)">
      <path
         style="fill:#000000;stroke-width:1.5875;stroke-dasharray:none"
         d="m 37.873313,82.424376 c -0.10088,-0.39879 -1.45606,-5.98612 0.48468,-11.00448 1.10759,-3.35774 3.5826,-6.0152 6.57464,-7.84949 6.65355,-4.25278 15.8563,-0.44207 19.06414,7.36371 2.41131,4.99672 0.4774,12.46308 -0.17648,12.92719 0.31251,-2.4007 0.47385,-4.72734 0.1171,-7.13212 -0.30698,-3.16374 -1.87629,-6.07868 -4.01672,-8.40252 -0.84416,-0.85338 -2.22448,-1.93501 -3.06736,-2.40363 -1.63525,-1.16421 -3.6118,-1.18384 -5.54039,-1.49163 -3.87855,0.34708 -6.95239,1.85499 -9.50435,4.84602 -2.757,3.22799 -3.37112,6.92488 -3.35,10.9488 0.0249,4.74036 0.0418,4.67694 -0.58526,2.19815 z m 9.07091,-0.4679 1.39919,-2.36625 -1.72616,-0.42516 c -1.15366,-0.28415 -2.82638,-0.62474 -3.25782,-0.8117 -1.3959,-0.60495 -1.07527,-0.49467 -1.6129,-0.74201 l 2.7251,-0.27703 c 1.25374,-0.16077 2.5806,-0.17447 3.63416,-0.92227 l -1.77192,-2.92558 c -2.19148,-3.61832 -2.1059,-3.74118 0.82863,-1.18987 2.93359,2.55049 2.79369,2.58744 3.26719,-0.86292 0.2187,-1.59363 0.52295,-3.25723 0.67613,-3.69686 l 0.2785,-0.79932 c 0.24732,2.03191 0.73553,4.05202 0.79858,6.10399 0,0.4636 0.0835,0.90217 0.35349,1.0938 l 0.35349,0.25091 2.42515,-2.0258 c 1.33384,-1.11418 2.5073,-2.02577 2.60768,-2.02577 0.10039,0 -0.63887,1.35694 -1.64281,3.01545 l -1.82536,3.01546 0.48728,0.34587 c 0.268,0.19022 1.73363,0.47256 3.25693,0.62743 l 2.76966,0.28156 -0.47014,0.33371 c -0.25857,0.18355 -1.51963,0.54911 -2.80235,0.81236 -1.28272,0.26328 -2.51696,0.60981 -2.74276,0.77008 l -0.41055,0.29141 1.24633,2.12542 c 1.5349,2.61758 1.41214,2.81693 -0.7523,1.2218 -2.09679,-1.54527 -2.35313,-1.54962 -3.02772,-0.0514 -0.69631,1.54639 -1.01422,1.51119 -1.60577,-0.17793 l -0.48221,-1.3769 -2.01653,1.3769 c -1.10907,0.7573 -2.09365,1.37692 -2.18794,1.37692 -0.0943,0 0.45821,-1.06484 1.22775,-2.36629 z m -21.013821,-3.48995 c -0.372449,-1.62427 -0.924051,-3.56579 -1.088564,-4.41306 -1.405288,-7.23792 9.142675,-14.18757 14.019565,-16.22776 11.79858,-4.93581 21.15197,-5.88482 47.4251,-4.64405 4.88065,0.2305 13.963337,0.42117 20.183757,0.42372 3.28936,0.14293 22.86366,0.6942 34.6256,-5.7222 l 1.39197,-0.75937 c -7.76098,7.82591 -18.34734,11.26064 -56.300947,9.38048 -20.58625,-1.0198 -45.59008,-2.4218 -57.394094,12.82181 -1.724705,2.22729 -1.635823,6.16997 -1.145539,9.20158 0.213161,1.31803 0.340816,2.79805 0.198857,3.91628 -0.07758,0.61105 -0.950671,1.58453 -0.950671,1.58453 0.03307,-1.90193 -0.523043,-3.63436 -0.965034,-5.56196 z m 156.402968,4.06836 c 0,-0.26939 2.45987,-3.55584 3.52183,-7.25874 1.22286,-4.2639 0.74531,-13.64709 0.50326,-16.5183 l 0.79906,-0.91768 c 1.41799,3.49187 1.57888,6.75018 1.61377,10.53105 -0.10969,4.73159 -0.94481,8.35089 -3.75974,11.88576 -1.39336,1.65016 -2.67818,2.74296 -2.67818,2.27791 z M 77.760613,80.139306 c 0.1914,-0.10458 5.51573,-0.65088 11.83186,-1.21401 31.693307,-2.82567 35.940207,-4.19334 48.141407,-15.50333 0,0 3.14534,-3.30587 4.98993,-4.62546 8.45467,-6.04835 18.17904,-5.17342 27.97805,-3.44685 5.15106,1.06236 10.27451,1.63341 15.43249,0.56677 -0.33255,1.33337 -0.58501,2.35292 -1.8216,3.09235 -2.96135,1.75875 -14.5033,-1.03932 -18.85718,-1.50928 -6.07483,-0.6402 -12.02483,-0.4481 -17.68124,2.41081 -2.47752,1.09036 -4.30255,2.93921 -6.27948,4.72649 -3.94405,3.7106 -7.86938,7.46811 -12.75284,9.91521 -7.99234,3.86732 -17.71132,5.23679 -39.671537,5.58997 -6.41182,0.10313 -11.50125,0.10192 -11.30986,-0.003 z m 98.656827,-27.38579 c -2.33705,-0.42805 -5.43647,-1.38433 -14.27707,-4.40494 -18.47316,-6.24134 -38.2698,-13.06392 -57.93208,-8.91571 -4.858737,1.02505 -8.623507,3.05392 -16.231807,7.36971 l -6.96111,3.94866 h -4.26395 c 2.59048,-2.81557 18.27565,-11.62833 22.89871,-13.39707 9.732317,-3.88549 20.792327,-2.91414 30.947757,-1.43322 8.82116,1.64988 16.0799,3.81819 32.2477,9.63295 11.00921,3.95945 13.0212,4.55138 16.87782,4.96553 2.89669,0.48629 5.79358,-0.4159 8.60545,-1.08535 -2.13727,4.58641 -10.06875,3.61309 -11.91142,3.31944 z"
         id="path2"
         sodipodi:nodetypes="ccccssccssscsscscsssscsscssscsscssscsssscssssssssscsssscsssssccssssscscccccsscsssscscssscsccs"
         clip-path="url(#clipPath15)" />
      <path
         style="fill:#bd0f19;fill-opacity:1;stroke:#100000;stroke-width:0.79375;stroke-linecap:round;stroke-linejoin:round;stroke-dasharray:none;stroke-opacity:1"
         d="m 77.760613,80.139306 c 0.1914,-0.10458 5.51573,-0.65088 11.83186,-1.21401 31.693307,-2.82567 35.940207,-4.19334 48.141407,-15.50333 0,0 3.14534,-3.30587 4.98993,-4.62546 8.45467,-6.04835 18.17904,-5.17342 27.97805,-3.44685 5.15106,1.06236 10.27451,1.63341 15.43249,0.56677 -0.33255,1.33337 -0.58501,2.35292 -1.8216,3.09235 -2.96135,1.75875 -14.5033,-1.03932 -18.85718,-1.50928 -6.07483,-0.6402 -12.02483,-0.4481 -17.68124,2.41081 -2.47752,1.09036 -4.30255,2.93921 -6.27948,4.72649 -3.94405,3.7106 -7.86938,7.46811 -12.75284,9.91521 -7.99234,3.86732 -17.71132,5.23679 -39.671537,5.58997 -6.41182,0.10313 -11.50125,0.10192 -11.30986,-0.003 z"
         id="path19"
         sodipodi:nodetypes="scscccccsscsss"
         clip-path="url(#clipPath15)" />
    </g>
  </g>
</svg>
