<?xml version="1.0" encoding="UTF-8" standalone="no"?>
<!-- Created with Inkscape (http://www.inkscape.org/) -->

<svg
   width="32"
   height="32"
   viewBox="0 0 8.4666662 8.4666666"
   version="1.1"
   id="svg1"
   inkscape:version="1.4.2 (ebf0e940, 2025-05-08)"
   sodipodi:docname="favicon.svg"
   xmlns:inkscape="http://www.inkscape.org/namespaces/inkscape"
   xmlns:sodipodi="http://sodipodi.sourceforge.net/DTD/sodipodi-0.dtd"
   xmlns="http://www.w3.org/2000/svg"
   xmlns:svg="http://www.w3.org/2000/svg">
  <sodipodi:namedview
     id="namedview1"
     pagecolor="#ffffff"
     bordercolor="#000000"
     borderopacity="0.25"
     inkscape:showpageshadow="2"
     inkscape:pageopacity="0.0"
     inkscape:pagecheckerboard="0"
     inkscape:deskcolor="#d1d1d1"
     inkscape:document-units="mm"
     inkscape:zoom="11.750005"
     inkscape:cx="10.042549"
     inkscape:cy="15.404249"
     inkscape:window-width="1440"
     inkscape:window-height="841"
     inkscape:window-x="0"
     inkscape:window-y="39"
     inkscape:window-maximized="0"
     inkscape:current-layer="svg1" />
  <defs
     id="defs1" />
  <rect
     style="fill:#bd101a;fill-opacity:1;stroke:#bd101a;stroke-width:0.79375;stroke-linecap:round;stroke-linejoin:round;stroke-opacity:1"
     id="rect1"
     width="7.5884724"
     height="7.7235856"
     x="0.43909714"
     y="0.37154052"
     rx="1.8520833"
     ry="1.8520833" />
  <g
     inkscape:label="Layer 1"
     inkscape:groupmode="layer"
     id="layer1"
     transform="translate(1.3365836,-220.40426)">
    <path
       d="m 2.8069143,227.50081 c -0.3806898,0 -0.7318894,-0.0697 -1.0535989,-0.20911 -0.316348,-0.14478 -0.5763964,-0.34852 -0.78014591,-0.61125 l 0.72384661,-0.86862 c 0.1554928,0.20375 0.3190286,0.35924 0.4906072,0.46648 0.1715785,0.10187 0.3565613,0.15281 0.5549489,0.15281 0.5308209,0 0.7962311,-0.31099 0.7962311,-0.93296 v -2.67822 H 1.5602894 v -1.04556 h 3.2733951 v 3.6514 c 0,0.69704 -0.1715786,1.21714 -0.5147353,1.5603 -0.3431567,0.34315 -0.8471686,0.51473 -1.5120349,0.51473 z"
       id="text14"
       style="font-weight:bold;font-size:22.5778px;font-family:Montserrat;-inkscape-font-specification:'Montserrat Bold';text-align:center;letter-spacing:2.64583px;text-anchor:middle;stroke:#000000;stroke-width:0.0943995"
       aria-label="JAYS AUTO"
       sodipodi:nodetypes="sccccssccccsss" />
  </g>
</svg>
